<?xml version="1.0" encoding="UTF-8" standalone="no"?>
<svg
   xmlns:dc="http://purl.org/dc/elements/1.1/"
   xmlns:cc="http://creativecommons.org/ns#"
   xmlns:rdf="http://www.w3.org/1999/02/22-rdf-syntax-ns#"
   xmlns:svg="http://www.w3.org/2000/svg"
   xmlns="http://www.w3.org/2000/svg"
   version="1.1"
   id="svg4167"
   viewBox="0 0 600.00002 200"
   height="200"
   width="600">
  <defs
     id="defs4169" />
  <metadata
     id="metadata4172">
    <rdf:RDF>
      <cc:Work
         rdf:about="">
        <dc:format>image/svg+xml</dc:format>
        <dc:type
           rdf:resource="http://purl.org/dc/dcmitype/StillImage" />
        <dc:title></dc:title>
      </cc:Work>
    </rdf:RDF>
  </metadata>
  <g
     transform="translate(-377.41483,-582.27486)"
     id="layer1">
    <path
       id="rect4194"
       d="m 377.41483,582.27484 h 600 v 199.99999 h -600 z"
       style="opacity:1;fill:#272822;fill-opacity:1;stroke:#133cac;stroke-width:0;stroke-linecap:butt;stroke-linejoin:bevel;stroke-miterlimit:4;stroke-dasharray:none;stroke-opacity:1" />
    <g
       id="text4774"
       style="font-style:normal;font-weight:normal;line-height:0%;font-family:sans-serif;letter-spacing:0px;word-spacing:0px;fill:#000000;fill-opacity:1;stroke:none;stroke-width:1px;stroke-linecap:butt;stroke-linejoin:miter;stroke-opacity:1"
       aria-label="セレクタ {
  プロパティ: 値;
}">
      <path
         id="path373"
         style="font-style:normal;font-variant:normal;font-weight:normal;font-stretch:normal;font-family:'Ricty Nerd Font';-inkscape-font-specification:'Ricty Nerd Font';fill:#a6e22e;fill-opacity:1"
         d="m 428.07178,676.24079 q -6.8,0.92 -13.6,0.92 -4.92,0 -6.52,-1.32 -1.76,-1.4 -1.92,-5.36 -0.04,-0.56 -0.04,-1.8 v -9.48 l -8.2,1.4 -0.4,-2.6 8.6,-1.44 v -8.16 h 2.8 v 7.68 l 19.72,-3.32 0.4,2.64 q -1.76,5.6 -6.44,10 -1.2,1.16 -2.92,2.32 l -1.68,-2.08 q 4.84,-3.28 7.36,-8.4 0.12,-0.24 0.64,-1.36 l -17.08,2.88 v 9.44 q 0,3.92 0.76,5.04 0.8,1.12 3.48,1.32 0.56,0.04 2.04,0.04 6.44,0 12.88,-0.92 z" />
      <path
         id="path375"
         style="font-style:normal;font-variant:normal;font-weight:normal;font-stretch:normal;font-family:'Ricty Nerd Font';-inkscape-font-specification:'Ricty Nerd Font';fill:#a6e22e;fill-opacity:1"
         d="m 445.55178,675.04079 q 13.32,-0.76 18.8,-11.28 0.84,-1.6 1.48,-3.44 l 2.56,1.04 q -5.76,15.84 -23.8,16.36 -0.48,0.04 -1.4,0.04 h -0.6 v -28.12 h 2.96 z" />
      <path
         id="path377"
         style="font-style:normal;font-variant:normal;font-weight:normal;font-stretch:normal;font-family:'Ricty Nerd Font';-inkscape-font-specification:'Ricty Nerd Font';fill:#a6e22e;fill-opacity:1"
         d="m 503.07178,654.48079 h -14.36 q -2.16,6.32 -7.24,11.04 l -1.96,-1.76 q 6.44,-6.08 7.72,-14.8 0.08,-0.56 0.12,-0.8 l 2.72,0.16 q -0.16,1.4 -0.64,3.6 h 16.56 v 0.64 q 0,13.32 -6.96,19.24 -5.68,4.84 -17,5.88 l -0.44,-2.56 q 11.48,-1.08 16.4,-6.12 4.72,-4.76 5.08,-14.52 z" />
      <path
         id="path379"
         style="font-style:normal;font-variant:normal;font-weight:normal;font-stretch:normal;font-family:'Ricty Nerd Font';-inkscape-font-specification:'Ricty Nerd Font';fill:#a6e22e;fill-opacity:1"
         d="m 522.23178,678.04079 -0.4,-2.56 q 11.32,-1 16.28,-6.04 1.08,-1.08 1.8,-2.24 -5.84,-3 -12.16,-5.76 l 1.28,-2.44 q 5.96,2.56 12.24,5.76 1.88,-4.28 2.04,-10.64 h -14.88 q -2.08,6.48 -7.12,11.28 l -1.92,-1.76 q 5.48,-5.16 7.16,-13.04 0.12,-0.72 0.4,-2.56 l 2.68,0.12 q -0.12,1.16 -0.56,3.4 h 17.2 v 1.08 q 0,13.44 -7.04,19.52 -5.76,4.84 -17,5.88 z" />
      <path
         id="path381"
         style="font-style:normal;font-variant:normal;font-weight:normal;font-stretch:normal;font-size:40px;line-height:1;font-family:'Ricty Nerd Font';-inkscape-font-specification:'Ricty Nerd Font';fill:#f8f8f2;fill-opacity:1"
         d="m 580.87178,676.04079 0.16,-4 q 0,-2.68 -0.92,-3.56 -1,-0.92 -2.68,-0.92 h -0.8 v -2.24 h 0.76 q 1.84,0 2.8,-1 0.92,-0.96 0.92,-3.28 l -0.08,-2.88 q 0,-6.96 7.28,-6.96 h 2.52 v 2.28 h -3.28 q -3.72,0 -3.72,4.24 l 0.08,2.8 q 0,4.4 -3.48,5.92 3.4,1.12 3.4,6.2 l -0.12,3.36 q 0,2.76 1.2,3.76 1.24,1.04 3.84,1.04 h 2.04 v 2.24 h -1.44 q -1.92,0 -3.48,-0.12 -1.4,-0.12 -2.76,-1.08 -2.24,-1.76 -2.24,-5.8 z" />
      <path
         id="path383"
         style="font-style:normal;font-variant:normal;font-weight:normal;font-stretch:normal;font-family:'Ricty Nerd Font';-inkscape-font-specification:'Ricty Nerd Font';fill:#66d9ef;fill-opacity:1"
         d="m 465.07178,696.44079 q 2.32,0 3.56,-1.84 0.76,-1.12 0.76,-2.44 0,-2.28 -1.88,-3.6 -1.12,-0.76 -2.44,-0.76 -2.32,0 -3.56,1.92 -0.68,1.12 -0.76,2.44 0,2.28 1.92,3.56 1.08,0.72 2.4,0.72 z m 0,-10.72 q 3.04,0 4.96,2.4 1.36,1.8 1.44,4.04 0,3.04 -2.36,4.92 -1.52,1.24 -3.48,1.4 -1.92,12.4 -12.56,16.92 -4.24,1.8 -10.2,2.48 l -0.48,-2.6 q 12.32,-1.4 17.12,-8.28 2.52,-3.68 3.28,-8.92 -2.6,-1.04 -3.6,-3.44 -0.08,-0.2 -0.16,-0.52 h -19.96 v -2.68 h 19.64 q 0.32,-3 2.8,-4.6 1.6,-1.12 3.56,-1.12 z" />
      <path
         id="path385"
         style="font-style:normal;font-variant:normal;font-weight:normal;font-stretch:normal;font-family:'Ricty Nerd Font';-inkscape-font-specification:'Ricty Nerd Font';fill:#66d9ef;fill-opacity:1"
         d="m 482.83178,713.84079 h 21.6 v -20.52 h -21.6 z m 0,2.6 h -2.92 v -25.72 h 27.44 v 25.72 z" />
      <path
         id="path387"
         style="font-style:normal;font-variant:normal;font-weight:normal;font-stretch:normal;font-family:'Ricty Nerd Font';-inkscape-font-specification:'Ricty Nerd Font';fill:#66d9ef;fill-opacity:1"
         d="m 525.51178,691.16079 2.92,0.2 q -1.56,13.92 -8.36,26.04 l -2.68,-1.28 q 6.56,-11.76 8.12,-24.96 z m 16.48,5.44 q 2.28,0 3.56,-1.92 0.72,-1.08 0.8,-2.44 0,-2.28 -1.92,-3.56 -1.12,-0.76 -2.44,-0.76 -2.28,0 -3.56,1.88 -0.76,1.12 -0.76,2.44 0,2.28 1.88,3.6 1.12,0.76 2.44,0.76 z m 0,-10.76 q 3.04,0 4.96,2.36 1.36,1.8 1.44,4.04 0,3.04 -2.36,4.96 -1.32,1.08 -3.2,1.4 3.16,8.2 5.72,18.36 l -2.96,0.64 q -2.52,-10.04 -5.56,-18.28 l 2.12,-0.68 h -0.16 q -3.04,0 -4.96,-2.4 -1.4,-1.84 -1.4,-4 0,-3.04 2.36,-4.96 1.72,-1.44 4,-1.44 z" />
      <path
         id="path389"
         style="font-style:normal;font-variant:normal;font-weight:normal;font-stretch:normal;font-family:'Ricty Nerd Font';-inkscape-font-specification:'Ricty Nerd Font';fill:#66d9ef;fill-opacity:1"
         d="m 558.35178,700.04079 h 30.56 v 2.56 h -12.48 q -0.08,8.12 -4.48,11.96 -2.88,2.44 -7.6,3.68 l -0.8,-2.52 q 6,-1.72 8.2,-5.2 1.76,-2.96 1.76,-7.92 h -15.16 z m 4.12,-7.28 v -2.56 h 22.32 v 2.56 z" />
      <path
         id="path391"
         style="font-style:normal;font-variant:normal;font-weight:normal;font-stretch:normal;font-family:'Ricty Nerd Font';-inkscape-font-specification:'Ricty Nerd Font';fill:#66d9ef;fill-opacity:1"
         d="m 601.83178,705.88079 q 8.6,-1.2 15.96,-5.92 3.48,-2.24 5.88,-4.8 l 1.64,1.88 q -3.44,3.64 -8.64,6.48 v 14.8 h -2.8 v -13.44 q -5.84,2.64 -11.64,3.48 z" />
      <path
         id="path393"
         style="font-style:normal;font-variant:normal;font-weight:normal;font-stretch:normal;font-size:40px;line-height:1;font-family:'Ricty Nerd Font';-inkscape-font-specification:'Ricty Nerd Font';fill:#f8f8f2;fill-opacity:1"
         d="m 645.71178,713.20079 q 0.72,0.72 0.72,1.64 0,0.96 -0.72,1.6 -0.76,0.68 -1.68,0.68 -1,0 -1.68,-0.68 -0.68,-0.68 -0.68,-1.6 0,-0.96 0.72,-1.64 0.76,-0.68 1.64,-0.68 0.88,0 1.68,0.68 z m 0,-12.76 q 0.72,0.72 0.72,1.64 0,0.92 -0.72,1.6 -0.76,0.68 -1.68,0.68 -0.88,0 -1.64,-0.68 -0.72,-0.68 -0.72,-1.6 0,-1 0.72,-1.64 0.76,-0.68 1.64,-0.68 0.88,0 1.68,0.68 z" />
      <path
         id="path395"
         style="font-style:normal;font-variant:normal;font-weight:normal;font-stretch:normal;font-family:'Ricty Nerd Font';-inkscape-font-specification:'Ricty Nerd Font';fill:#ae81ff;fill-opacity:1"
         d="m 689.07178,696.04079 v 19.64 h 21.36 v 2.4 h -21.36 v 1.76 h -2.8 v -23.8 z m 16.56,14.92 v -3.24 h -10.48 v 3.24 z m -19.48,-18.84 v -2.36 h 12 q 0,-0.12 0.08,-0.64 0.08,-0.56 0.12,-0.96 0.04,-0.36 0.12,-0.76 0.08,-0.44 0.08,-0.52 l 2.8,0.08 q -0.04,0.4 -0.2,1.32 -0.12,0.92 -0.2,1.48 h 9.48 v 2.36 h -9.84 l -0.36,1.92 q -0.16,0.72 -0.24,1.16 h 8.44 v 18.04 h -13.28 -2.72 v -18.04 h 4.72 q 0.12,-0.68 0.6,-3.08 z m 9,8.4 h 10.48 v -3.04 h -10.48 z m 0,2.04 v 3.12 h 10.48 v -3.12 z m -12.52,-5.36 v 22.64 h -2.72 v -17.36 q -1.4,2.56 -2.96,4.56 l -1.24,-3.08 q 5.08,-7.08 7.08,-16.76 l 2.64,0.52 q -0.96,5.24 -2.8,9.48 z" />
      <path
         id="path397"
         style="font-style:normal;font-variant:normal;font-weight:normal;font-stretch:normal;font-size:40px;line-height:1;font-family:'Ricty Nerd Font';-inkscape-font-specification:'Ricty Nerd Font';fill:#f8f8f2;fill-opacity:1"
         d="m 725.71178,700.44079 q 0.72,0.72 0.72,1.64 0,0.92 -0.72,1.6 -0.76,0.68 -1.68,0.68 -0.88,0 -1.64,-0.68 -0.72,-0.68 -0.72,-1.6 0,-1 0.72,-1.64 0.76,-0.68 1.64,-0.68 0.88,0 1.68,0.68 z m 1.04,15.44 q 0,3.12 -4.28,7.52 l -1.36,-1.2 q 1.16,-1.04 1.88,-2.24 0.72,-1.2 0.72,-1.96 0,-0.36 -0.32,-0.76 -0.12,-0.12 -0.72,-0.64 -0.4,-0.36 -0.68,-0.72 -0.32,-0.44 -0.32,-0.96 0,-1 0.68,-1.68 0.68,-0.68 1.68,-0.68 1.04,0 1.88,0.92 0.84,0.88 0.84,2.4 z" />
      <path
         id="path399"
         style="font-style:normal;font-variant:normal;font-weight:normal;font-stretch:normal;font-size:40px;line-height:1;font-family:'Ricty Nerd Font';-inkscape-font-specification:'Ricty Nerd Font';fill:#f8f8f2;fill-opacity:1"
         d="m 408.03178,738.16079 -0.12,2.88 q 0,2.28 0.96,3.28 0.96,1 2.76,1 h 0.8 v 2.24 h -0.84 q -1.72,0 -2.64,0.92 -0.92,0.92 -0.92,3.56 l 0.12,4 q 0,3.56 -1.6,5.28 -1.6,1.72 -5.04,1.72 h -3.28 v -2.24 h 2.2 q 1.08,0 1.44,-0.04 0.6,-0.08 0.88,-0.16 0.48,-0.16 0.56,-0.2 0.24,-0.12 0.4,-0.28 1.64,-1.16 1.64,-4.12 l -0.12,-3.36 q 0,-5.08 3.36,-6.2 -3.48,-1.52 -3.48,-5.92 l 0.12,-2.8 q 0,-2.32 -1,-3.28 -1.04,-0.96 -3.04,-0.96 h -3 v -2.28 h 1.24 q 1.4,0 2.88,0.12 1.64,0.12 2.8,0.84 1.28,0.8 2.12,2.16 0.8,1.32 0.8,3.84 z" />
    </g>
    <path
       id="rect4226"
       d="m 553.88965,648.95142 h 14.97673 v 30.97673 h -14.97673 z"
       style="opacity:0.5;fill:none;fill-opacity:1;stroke:#f8f8f2;stroke-width:2.00000024;stroke-linecap:butt;stroke-linejoin:bevel;stroke-miterlimit:4;stroke-dasharray:none;stroke-opacity:1" />
    <path
       id="rect4226-5"
       d="m 420.59018,689.58594 h 14.97673 v 30.97673 h -14.97673 z"
       style="opacity:0.5;fill:none;fill-opacity:1;stroke:#f8f8f2;stroke-width:2.00000024;stroke-linecap:butt;stroke-linejoin:bevel;stroke-miterlimit:4;stroke-dasharray:none;stroke-opacity:1" />
    <path
       id="rect4226-6"
       d="m 400.59018,689.58594 h 14.97673 v 30.97673 h -14.97673 z"
       style="opacity:0.5;fill:none;fill-opacity:1;stroke:#f8f8f2;stroke-width:2.00000024;stroke-linecap:butt;stroke-linejoin:bevel;stroke-miterlimit:4;stroke-dasharray:none;stroke-opacity:1" />
    <g
       id="text4928"
       style="font-style:normal;font-weight:normal;line-height:0%;font-family:sans-serif;letter-spacing:0px;word-spacing:0px;fill:#000000;fill-opacity:1;stroke:none;stroke-width:1px;stroke-linecap:butt;stroke-linejoin:miter;stroke-opacity:1"
       aria-label="↓開き波かっこ">
      <path
         id="path405"
         style="font-style:normal;font-variant:normal;font-weight:normal;font-stretch:normal;font-size:40px;line-height:0;font-family:'Ricty Nerd Font';-inkscape-font-specification:'Ricty Nerd Font';fill:#75715e;fill-opacity:1"
         d="m 588.23887,634.71683 5.88,-6.76 1.76,1.52 -8.92,10.16 -8.92,-10.16 1.76,-1.52 5.88,6.76 v -21.48 h 2.56 z" />
      <path
         id="path407"
         style="font-style:normal;font-variant:normal;font-weight:normal;font-stretch:normal;font-size:40px;line-height:0;font-family:'Ricty Nerd Font';-inkscape-font-specification:'Ricty Nerd Font';fill:#75715e;fill-opacity:1"
         d="m 629.15887,627.99683 h -4.48 v 2.44 q 0,0.32 -0.04,0.56 v 0.48 h 4.52 z m -1.2,-17.52 h 14.48 v 26.44 q 0,3 -0.72,3.8 -0.68,0.76 -3.24,0.84 h -0.6 q -1.28,0 -4,-0.2 l -0.12,-2.44 q 3.4,0.2 3.68,0.2 1.6,0 1.92,-0.36 0.2,-0.32 0.28,-1.76 v -13.36 h -11.68 z m -16.48,31.32 v -31.32 h 14.08 v 13.16 h -11.28 v 18.16 z m 10.28,-8.24 h -4.72 v -2.08 h 4.96 v -0.4 q 0,-0.28 0.04,-0.36 v -2.72 h -4.24 v -2.16 h 17.96 v 2.16 h -3.96 v 3.48 h 4.56 v 2.08 h -4.56 v 7.2 h -2.64 v -7.2 h -4.76 q -0.92,4.76 -5.2,7.56 l -2.12,-1.68 q 3.52,-2.28 4.48,-5.28 0.16,-0.4 0.2,-0.6 z m 17.88,-17.44 v -3.32 h -8.92 v 3.32 z m 0,2 h -8.92 v 3.44 h 8.92 z m -25.36,-2 h 8.56 v -3.32 h -8.56 z m 0,2 v 3.44 h 8.56 v -3.44 z" />
      <path
         id="path409"
         style="font-style:normal;font-variant:normal;font-weight:normal;font-stretch:normal;font-size:40px;line-height:0;font-family:'Ricty Nerd Font';-inkscape-font-specification:'Ricty Nerd Font';fill:#75715e;fill-opacity:1"
         d="m 668.15887,614.15683 q -0.32,-2.32 -0.44,-4.28 l 2.68,-0.16 q 0.2,2.16 0.48,4.4 6.48,-0.24 9.64,-0.44 l 0.08,2.32 q -3.08,0.16 -9.32,0.4 0.48,2.24 1.32,4.6 4.64,-0.16 8.76,-0.4 l 0.08,2.32 q -2.64,0.16 -7.92,0.36 1.36,3.12 3.64,6.48 l -2.44,1.72 q -5.04,-2.32 -9.56,-2.4 -7.36,0.04 -7.36,4.08 0,3.6 4.64,4.68 2.12,0.52 5.76,0.52 4.08,0 8.48,-0.76 l 0.32,2.4 q -4.52,0.72 -8.8,0.72 -13.24,-0.04 -13.32,-7.56 0,-3.68 3.88,-5.28 2.6,-1.04 6.4,-1.08 3.88,0 7.92,1.56 l 0.04,-0.08 q -1.2,-2.24 -2.4,-4.92 -9.24,0.28 -18.2,0.28 v -2.28 q 9.64,0 17.32,-0.28 -0.76,-2.2 -1.28,-4.6 -8.8,0.24 -14.76,0.24 v -2.32 q 7.12,-0.08 14.36,-0.24 z" />
      <path
         id="path411"
         style="font-style:normal;font-variant:normal;font-weight:normal;font-stretch:normal;font-size:40px;line-height:0;font-family:'Ricty Nerd Font';-inkscape-font-specification:'Ricty Nerd Font';fill:#75715e;fill-opacity:1"
         d="m 705.27887,625.79683 2.4,-1.04 q 2,4.68 5.08,7.96 3.36,-3.72 5.32,-8.84 h -14.56 v 0.2 q 0,10.92 -4,17.68 l -2,-2.16 q 3,-5.8 3.28,-14.44 0.04,-0.92 0.04,-2.8 v -9.56 h 9.88 v -3.52 h 2.8 v 3.52 h 10.08 v 2.44 q -0.96,2.76 -2.52,5.32 l -2.24,-1.16 q 1.4,-2.32 2.08,-4.16 h -7.4 v 6.28 h 7.52 v 2.36 q -2.4,6.4 -6.32,10.68 3.84,3.12 9.24,4.68 l -0.68,2.4 q -6.16,-1.68 -10.44,-5.24 -4.16,3.56 -9.88,5.24 l -0.92,-2.4 q 5,-1.36 8.8,-4.68 -3.36,-3.6 -5.56,-8.76 z m -6.68,4.36 q -2.12,6.44 -5.76,11.52 l -2.28,-1.48 q 3.48,-5 5.64,-11 z m -2.52,-4.64 q -2.84,-2.72 -6.56,-5.48 l 1.64,-1.96 q 3.96,2.96 6.6,5.44 z m -4.84,-13.48 1.64,-1.96 q 3.56,2.68 5.96,4.96 l -1.68,1.96 q -2.96,-2.72 -5.92,-4.96 z m 19.48,3.2 h -7.2 v 6.28 h 7.2 z" />
      <path
         id="path413"
         style="font-style:normal;font-variant:normal;font-weight:normal;font-stretch:normal;font-size:40px;line-height:0;font-family:'Ricty Nerd Font';-inkscape-font-specification:'Ricty Nerd Font';fill:#75715e;fill-opacity:1"
         d="m 754.83887,614.79683 2.52,-0.92 q 3.64,8.36 6.08,17.16 0.16,0.72 0.36,1.32 l -2.56,0.68 q -2.16,-8.32 -5.92,-17.12 -0.32,-0.64 -0.48,-1.12 z m -22.56,4.8 v -2.44 h 7.12 q 1,-4.48 1.56,-7.68 l 2.6,0.28 q -0.56,3.28 -1.44,7.4 h 3.28 q 4.56,0 5.76,0.52 1.4,0.6 1.84,2.72 0.24,1.48 0.24,6.12 0,9.52 -3.12,12.56 -1.12,1.12 -2.56,1.12 -2.92,0 -6.96,-1.8 -0.08,-0.04 -0.4,-0.16 l 0.88,-2.44 q 4.12,1.76 6,1.76 1.2,0 2.16,-2.44 1.24,-3.2 1.24,-8.96 0,-4.44 -0.36,-5.32 -0.4,-0.96 -1.92,-1.16 -0.88,-0.08 -2.32,-0.08 h -4.36 q -2.72,10.96 -7.2,20.84 l -2.48,-0.96 q 4.24,-9.44 6.96,-19.88 z" />
      <path
         id="path415"
         style="font-style:normal;font-variant:normal;font-weight:normal;font-stretch:normal;font-size:40px;line-height:0;font-family:'Ricty Nerd Font';-inkscape-font-specification:'Ricty Nerd Font';fill:#75715e;fill-opacity:1"
         d="m 774.91887,621.43683 q 8.84,-2.24 13.04,-2.2 11,0.08 11,9.2 0,9.4 -13.28,10.92 -2.36,0.28 -5.4,0.28 l -0.12,-2.48 q 14.8,0 15.92,-7.2 0.12,-0.68 0.08,-1.28 0,-5.64 -5.48,-6.6 -1.16,-0.2 -2.96,-0.28 -3.88,0 -12.24,2.16 z" />
      <path
         id="path417"
         style="font-style:normal;font-variant:normal;font-weight:normal;font-stretch:normal;font-size:40px;line-height:0;font-family:'Ricty Nerd Font';-inkscape-font-specification:'Ricty Nerd Font';fill:#75715e;fill-opacity:1"
         d="m 839.75887,638.63683 q -4.08,1.2 -10.72,1.52 -0.68,0.04 -1.84,0.04 -8.04,0 -11.64,-3.24 -2.08,-1.84 -2.08,-4.4 0.08,-3.56 5.24,-8.64 l 2.04,1.64 q -4.4,4.32 -4.44,6.76 0,2.92 4,4.36 2.76,1 6.88,0.96 5.44,0 10.68,-1.24 0.12,-0.04 0.6,-0.12 0.48,-0.12 0.72,-0.2 z m -23,-23.12 v -2.48 h 20.76 v 2.48 z" />
    </g>
    <g
       id="text4942"
       style="font-style:normal;font-weight:normal;line-height:0%;font-family:sans-serif;letter-spacing:0px;word-spacing:0px;fill:#000000;fill-opacity:1;stroke:none;stroke-width:1px;stroke-linecap:butt;stroke-linejoin:miter;stroke-opacity:1"
       aria-label="←閉じ波かっこ">
      <path
         id="path420"
         style="font-style:normal;font-variant:normal;font-weight:normal;font-stretch:normal;font-size:40px;line-height:0;font-family:'Ricty Nerd Font';-inkscape-font-specification:'Ricty Nerd Font';fill:#75715e;fill-opacity:1"
         d="m 429.48139,745.60687 6.76,5.88 -1.52,1.76 -10.16,-8.92 10.16,-8.92 1.52,1.76 -6.76,5.88 h 21.48 v 2.56 z" />
      <path
         id="path422"
         style="font-style:normal;font-variant:normal;font-weight:normal;font-stretch:normal;font-size:40px;line-height:0;font-family:'Ricty Nerd Font';-inkscape-font-specification:'Ricty Nerd Font';fill:#75715e;fill-opacity:1"
         d="m 468.64139,757.36687 -1.28,-2.04 q 5.4,-2.72 10.24,-7.2 h -9.4 v -2.24 h 11.2 v -2.56 h 2.64 v 2.56 h 5.28 v 2.24 h -5.28 v 8.76 q 0,1.84 -0.6,2.24 -0.64,0.48 -3.08,0.48 -1.92,0 -3.72,-0.16 l -0.04,-2.28 q 2.48,0.2 3.64,0.2 1.04,0 1.08,-0.36 0.08,-0.24 0.08,-0.76 v -6.6 q -5.08,4.72 -10.76,7.72 z m -6.36,3.04 v -31.32 h 14.08 v 13.16 h -11.28 v 18.16 z m 26.4,-0.24 q -1.28,0 -4,-0.2 l -0.12,-2.44 q 3.4,0.2 3.68,0.2 1.6,0 1.92,-0.36 0.2,-0.32 0.28,-1.76 v -13.36 h -11.68 v -13.16 h 14.48 v 26.44 q 0,3 -0.72,3.8 -0.68,0.76 -3.24,0.84 z m -23.6,-25.44 h 8.56 v -3.32 h -8.56 z m 0,2 v 3.44 h 8.56 v -3.44 z m 25.36,-2 v -3.32 h -8.92 v 3.32 z m 0,2 h -8.92 v 3.44 h 8.92 z" />
      <path
         id="path424"
         style="font-style:normal;font-variant:normal;font-weight:normal;font-stretch:normal;font-size:40px;line-height:0;font-family:'Ricty Nerd Font';-inkscape-font-specification:'Ricty Nerd Font';fill:#75715e;fill-opacity:1"
         d="m 506.64139,729.44687 2.84,0.08 q -0.4,8.64 -0.4,16.44 0,7.16 2.16,9.4 1.64,1.52 5.16,1.52 6.08,0 10.16,-6.88 1.2,-2.08 2.12,-4.44 l 2.56,0.96 q -3.48,9.44 -10.04,12.08 -2.32,0.92 -4.8,0.92 -5.56,0 -7.76,-2.68 -2.4,-3 -2.4,-10.88 -0.04,-5.72 0.4,-16.52 z m 17.68,0.72 2.36,-1.28 q 2.04,3.28 3.8,6.64 l -2.4,1.2 q -1.28,-2.4 -3.76,-6.56 z m -5.4,1.52 2.36,-1.24 q 2,3.32 3.72,6.56 l -2.36,1.16 q -1.52,-2.76 -3.72,-6.48 z" />
      <path
         id="path426"
         style="font-style:normal;font-variant:normal;font-weight:normal;font-stretch:normal;font-size:40px;line-height:0;font-family:'Ricty Nerd Font';-inkscape-font-specification:'Ricty Nerd Font';fill:#75715e;fill-opacity:1"
         d="m 556.08139,744.40687 2.4,-1.04 q 2,4.68 5.08,7.96 3.36,-3.72 5.32,-8.84 h -14.56 v 0.2 q 0,10.92 -4,17.68 l -2,-2.16 q 3,-5.8 3.28,-14.44 0.04,-0.92 0.04,-2.8 v -9.56 h 9.88 v -3.52 h 2.8 v 3.52 h 10.08 v 2.44 q -0.96,2.76 -2.52,5.32 l -2.24,-1.16 q 1.4,-2.32 2.08,-4.16 h -7.4 v 6.28 h 7.52 v 2.36 q -2.4,6.4 -6.32,10.68 3.84,3.12 9.24,4.68 l -0.68,2.4 q -6.16,-1.68 -10.44,-5.24 -4.16,3.56 -9.88,5.24 l -0.92,-2.4 q 5,-1.36 8.8,-4.68 -3.36,-3.6 -5.56,-8.76 z m -6.68,4.36 q -2.12,6.44 -5.76,11.52 l -2.28,-1.48 q 3.48,-5 5.64,-11 z m -2.52,-4.64 q -2.84,-2.72 -6.56,-5.48 l 1.64,-1.96 q 3.96,2.96 6.6,5.44 z m -4.84,-13.48 1.64,-1.96 q 3.56,2.68 5.96,4.96 l -1.68,1.96 q -2.96,-2.72 -5.92,-4.96 z m 19.48,3.2 h -7.2 v 6.28 h 7.2 z" />
      <path
         id="path428"
         style="font-style:normal;font-variant:normal;font-weight:normal;font-stretch:normal;font-size:40px;line-height:0;font-family:'Ricty Nerd Font';-inkscape-font-specification:'Ricty Nerd Font';fill:#75715e;fill-opacity:1"
         d="m 605.64139,733.40687 2.52,-0.92 q 3.64,8.36 6.08,17.16 0.16,0.72 0.36,1.32 l -2.56,0.68 q -2.16,-8.32 -5.92,-17.12 -0.32,-0.64 -0.48,-1.12 z m -22.56,4.8 v -2.44 h 7.12 q 1,-4.48 1.56,-7.68 l 2.6,0.28 q -0.56,3.28 -1.44,7.4 h 3.28 q 4.56,0 5.76,0.52 1.4,0.6 1.84,2.72 0.24,1.48 0.24,6.12 0,9.52 -3.12,12.56 -1.12,1.12 -2.56,1.12 -2.92,0 -6.96,-1.8 -0.08,-0.04 -0.4,-0.16 l 0.88,-2.44 q 4.12,1.76 6,1.76 1.2,0 2.16,-2.44 1.24,-3.2 1.24,-8.96 0,-4.44 -0.36,-5.32 -0.4,-0.96 -1.92,-1.16 -0.88,-0.08 -2.32,-0.08 h -4.36 q -2.72,10.96 -7.2,20.84 l -2.48,-0.96 q 4.24,-9.44 6.96,-19.88 z" />
      <path
         id="path430"
         style="font-style:normal;font-variant:normal;font-weight:normal;font-stretch:normal;font-size:40px;line-height:0;font-family:'Ricty Nerd Font';-inkscape-font-specification:'Ricty Nerd Font';fill:#75715e;fill-opacity:1"
         d="m 625.72139,740.04687 q 8.84,-2.24 13.04,-2.2 11,0.08 11,9.2 0,9.4 -13.28,10.92 -2.36,0.28 -5.4,0.28 l -0.12,-2.48 q 14.8,0 15.92,-7.2 0.12,-0.68 0.08,-1.28 0,-5.64 -5.48,-6.6 -1.16,-0.2 -2.96,-0.28 -3.88,0 -12.24,2.16 z" />
      <path
         id="path432"
         style="font-style:normal;font-variant:normal;font-weight:normal;font-stretch:normal;font-size:40px;line-height:0;font-family:'Ricty Nerd Font';-inkscape-font-specification:'Ricty Nerd Font';fill:#75715e;fill-opacity:1"
         d="m 690.56139,757.24687 q -4.08,1.2 -10.72,1.52 -0.68,0.04 -1.84,0.04 -8.04,0 -11.64,-3.24 -2.08,-1.84 -2.08,-4.4 0.08,-3.56 5.24,-8.64 l 2.04,1.64 q -4.4,4.32 -4.44,6.76 0,2.92 4,4.36 2.76,1 6.88,0.96 5.44,0 10.68,-1.24 0.12,-0.04 0.6,-0.12 0.48,-0.12 0.72,-0.2 z m -23,-23.12 v -2.48 h 20.76 v 2.48 z" />
    </g>
    <path
       id="rect4963"
       d="m 652.59015,689.58594 h 14.97673 v 30.97673 h -14.97673 z"
       style="opacity:0.5;fill:none;fill-opacity:1;stroke:#f8f8f2;stroke-width:2.00000024;stroke-linecap:butt;stroke-linejoin:bevel;stroke-miterlimit:4;stroke-dasharray:none;stroke-opacity:1" />
    <g
       id="text4942-9"
       style="font-style:normal;font-weight:normal;line-height:0%;font-family:sans-serif;letter-spacing:0px;word-spacing:0px;fill:#000000;fill-opacity:1;stroke:none;stroke-width:1px;stroke-linecap:butt;stroke-linejoin:miter;stroke-opacity:1"
       aria-label="↓コロン">
      <path
         id="path436"
         style="font-style:normal;font-variant:normal;font-weight:normal;font-stretch:normal;font-size:40px;line-height:0;font-family:'Ricty Nerd Font';-inkscape-font-specification:'Ricty Nerd Font';fill:#75715e;fill-opacity:1"
         d="m 645.75498,676.05972 5.88,-6.76 1.76,1.52 -8.92,10.16 -8.92,-10.16 1.76,-1.52 5.88,6.76 v -21.48 h 2.56 z" />
      <path
         id="path438"
         style="font-style:normal;font-variant:normal;font-weight:normal;font-stretch:normal;font-size:40px;line-height:0;font-family:'Ricty Nerd Font';-inkscape-font-specification:'Ricty Nerd Font';fill:#75715e;fill-opacity:1"
         d="m 671.63498,654.97972 h 25.48 v 24.52 h -25.48 v -2.56 h 22.68 v -19.44 h -22.68 z" />
      <path
         id="path440"
         style="font-style:normal;font-variant:normal;font-weight:normal;font-stretch:normal;font-size:40px;line-height:0;font-family:'Ricty Nerd Font';-inkscape-font-specification:'Ricty Nerd Font';fill:#75715e;fill-opacity:1"
         d="m 713.67498,677.49972 h 21.6 v -20.52 h -21.6 z m 0,2.6 h -2.92 v -25.72 h 27.44 v 25.72 z" />
      <path
         id="path442"
         style="font-style:normal;font-variant:normal;font-weight:normal;font-stretch:normal;font-size:40px;line-height:0;font-family:'Ricty Nerd Font';-inkscape-font-specification:'Ricty Nerd Font';fill:#75715e;fill-opacity:1"
         d="m 779.75498,657.69972 q -3.8,20.96 -26.88,23 l -0.44,-2.72 q 17.52,-1.64 22.84,-14.64 1.2,-3.08 1.84,-6.24 z m -28.12,-1.44 1.32,-2.44 q 6.12,3.08 11.12,6.16 l -1.44,2.48 q -4.6,-2.92 -11,-6.2 z" />
    </g>
    <g
       id="text4942-2"
       style="font-style:normal;font-weight:normal;line-height:0%;font-family:sans-serif;letter-spacing:0px;word-spacing:0px;fill:#000000;fill-opacity:1;stroke:none;stroke-width:1px;stroke-linecap:butt;stroke-linejoin:miter;stroke-opacity:1"
       aria-label="←セミコロン">
      <path
         id="path445"
         style="font-style:normal;font-variant:normal;font-weight:normal;font-stretch:normal;font-size:40px;line-height:0;font-family:'Ricty Nerd Font';-inkscape-font-specification:'Ricty Nerd Font';fill:#75715e;fill-opacity:1"
         d="m 737.82004,709.70813 6.76,5.88 -1.52,1.76 -10.16,-8.92 10.16,-8.92 1.52,1.76 -6.76,5.88 h 21.48 v 2.56 z" />
      <path
         id="path447"
         style="font-style:normal;font-variant:normal;font-weight:normal;font-stretch:normal;font-size:40px;line-height:0;font-family:'Ricty Nerd Font';-inkscape-font-specification:'Ricty Nerd Font';fill:#75715e;fill-opacity:1"
         d="m 800.54004,721.26813 q -6.8,0.92 -13.6,0.92 -4.92,0 -6.52,-1.32 -1.76,-1.4 -1.92,-5.36 -0.04,-0.56 -0.04,-1.8 v -9.48 l -8.2,1.4 -0.4,-2.6 8.6,-1.44 v -8.16 h 2.8 v 7.68 l 19.72,-3.32 0.4,2.64 q -1.76,5.6 -6.44,10 -1.2,1.16 -2.92,2.32 l -1.68,-2.08 q 4.84,-3.28 7.36,-8.4 0.12,-0.24 0.64,-1.36 l -17.08,2.88 v 9.44 q 0,3.92 0.76,5.04 0.8,1.12 3.48,1.32 0.56,0.04 2.04,0.04 6.44,0 12.88,-0.92 z" />
      <path
         id="path449"
         style="font-style:normal;font-variant:normal;font-weight:normal;font-stretch:normal;font-size:40px;line-height:0;font-family:'Ricty Nerd Font';-inkscape-font-specification:'Ricty Nerd Font';fill:#75715e;fill-opacity:1"
         d="m 814.18004,697.62813 0.16,-2.76 q 11.92,0.4 24.08,2.2 l -0.36,2.76 q -12.32,-1.8 -23.88,-2.2 z m 1.36,10.6 0.2,-2.84 q 10.52,0.44 20.84,2.28 l -0.4,2.84 q -10.68,-1.84 -20.64,-2.28 z m -3.04,11.72 0.12,-2.84 q 13.48,0.48 26.96,2.92 l -0.36,2.84 q -13.36,-2.44 -26.72,-2.92 z" />
      <path
         id="path451"
         style="font-style:normal;font-variant:normal;font-weight:normal;font-stretch:normal;font-size:40px;line-height:0;font-family:'Ricty Nerd Font';-inkscape-font-specification:'Ricty Nerd Font';fill:#75715e;fill-opacity:1"
         d="m 853.26004,696.34813 h 25.48 v 24.52 h -25.48 v -2.56 h 22.68 v -19.44 h -22.68 z" />
      <path
         id="path453"
         style="font-style:normal;font-variant:normal;font-weight:normal;font-stretch:normal;font-size:40px;line-height:0;font-family:'Ricty Nerd Font';-inkscape-font-specification:'Ricty Nerd Font';fill:#75715e;fill-opacity:1"
         d="m 895.30004,718.86813 h 21.6 v -20.52 h -21.6 z m 0,2.6 h -2.92 v -25.72 h 27.44 v 25.72 z" />
      <path
         id="path455"
         style="font-style:normal;font-variant:normal;font-weight:normal;font-stretch:normal;font-size:40px;line-height:0;font-family:'Ricty Nerd Font';-inkscape-font-specification:'Ricty Nerd Font';fill:#75715e;fill-opacity:1"
         d="m 961.38004,699.06813 q -3.8,20.96 -26.88,23 l -0.44,-2.72 q 17.52,-1.64 22.84,-14.64 1.2,-3.08 1.84,-6.24 z m -28.12,-1.44 1.32,-2.44 q 6.12,3.08 11.12,6.16 l -1.44,2.48 q -4.6,-2.92 -11,-6.2 z" />
    </g>
  </g>
</svg>
