<?xml version="1.0" encoding="UTF-8" standalone="no"?>
<svg
   xmlns:dc="http://purl.org/dc/elements/1.1/"
   xmlns:cc="http://creativecommons.org/ns#"
   xmlns:rdf="http://www.w3.org/1999/02/22-rdf-syntax-ns#"
   xmlns:svg="http://www.w3.org/2000/svg"
   xmlns="http://www.w3.org/2000/svg"
   version="1.1"
   id="svg2"
   viewBox="0 0 800.00004 300.00003"
   height="300"
   width="800">
  <defs
     id="defs4" />
  <metadata
     id="metadata7">
    <rdf:RDF>
      <cc:Work
         rdf:about="">
        <dc:format>image/svg+xml</dc:format>
        <dc:type
           rdf:resource="http://purl.org/dc/dcmitype/StillImage" />
        <dc:title></dc:title>
      </cc:Work>
    </rdf:RDF>
  </metadata>
  <g
     transform="translate(-115.43176,-191.07397)"
     id="layer1">
    <path
       id="rect4194"
       d="M 115.43173,191.07396 H 915.43185 V 491.07399 H 115.43173 Z"
       style="opacity:1;fill:#272822;fill-opacity:1;stroke:#133cac;stroke-width:0;stroke-linecap:butt;stroke-linejoin:bevel;stroke-miterlimit:4;stroke-dasharray:none;stroke-opacity:1" />
    <g
       id="text3336"
       style="font-style:normal;font-variant:normal;font-weight:normal;font-stretch:normal;line-height:0%;font-family:'Ricty Nerd Font';-inkscape-font-specification:'Ricty Nerd Font';letter-spacing:0px;word-spacing:0px;fill:#000000;fill-opacity:1;stroke:none;stroke-width:1px;stroke-linecap:butt;stroke-linejoin:miter;stroke-opacity:1"
       aria-label=" " />
    <g
       id="text3340"
       style="font-style:normal;font-weight:normal;line-height:0%;font-family:sans-serif;letter-spacing:55.54999924px;word-spacing:0px;fill:#000000;fill-opacity:1;stroke:none;stroke-width:1px;stroke-linecap:butt;stroke-linejoin:miter;stroke-opacity:1"
       aria-label=" " />
    <g
       id="text4204"
       style="font-style:normal;font-weight:normal;line-height:0%;font-family:sans-serif;letter-spacing:0px;word-spacing:0px;fill:#75715e;fill-opacity:1;stroke:none;stroke-width:1px;stroke-linecap:butt;stroke-linejoin:miter;stroke-opacity:1"
       aria-label="← 開きタグ">
      <path
         id="path179"
         style="font-style:normal;font-variant:normal;font-weight:normal;font-stretch:normal;font-size:40px;line-height:0;font-family:'Ricty Nerd Font';-inkscape-font-specification:'Ricty Nerd Font'"
         d="m 702.22934,307.23813 6.76,5.88 -1.52,1.76 -10.16,-8.92 10.16,-8.92 1.52,1.76 -6.76,5.88 h 21.48 v 2.56 z" />
      <path
         id="path181"
         style="font-style:normal;font-variant:normal;font-weight:normal;font-stretch:normal;font-size:40px;line-height:0;font-family:'Ricty Nerd Font';-inkscape-font-specification:'Ricty Nerd Font'"
         d="m 772.70934,308.23813 h -4.48 v 2.44 q 0,0.32 -0.04,0.56 v 0.48 h 4.52 z m -1.2,-17.52 h 14.48 v 26.44 q 0,3 -0.72,3.8 -0.68,0.76 -3.24,0.84 h -0.6 q -1.28,0 -4,-0.2 l -0.12,-2.44 q 3.4,0.2 3.68,0.2 1.6,0 1.92,-0.36 0.2,-0.32 0.28,-1.76 v -13.36 h -11.68 z m -16.48,31.32 v -31.32 h 14.08 v 13.16 h -11.28 v 18.16 z m 10.28,-8.24 h -4.72 v -2.08 h 4.96 v -0.4 q 0,-0.28 0.04,-0.36 v -2.72 h -4.24 v -2.16 h 17.96 v 2.16 h -3.96 v 3.48 h 4.56 v 2.08 h -4.56 v 7.2 h -2.64 v -7.2 h -4.76 q -0.92,4.76 -5.2,7.56 l -2.12,-1.68 q 3.52,-2.28 4.48,-5.28 0.16,-0.4 0.2,-0.6 z m 17.88,-17.44 v -3.32 h -8.92 v 3.32 z m 0,2 h -8.92 v 3.44 h 8.92 z m -25.36,-2 h 8.56 v -3.32 h -8.56 z m 0,2 v 3.44 h 8.56 v -3.44 z" />
      <path
         id="path183"
         style="font-style:normal;font-variant:normal;font-weight:normal;font-stretch:normal;font-size:40px;line-height:0;font-family:'Ricty Nerd Font';-inkscape-font-specification:'Ricty Nerd Font'"
         d="m 811.70934,294.39813 q -0.32,-2.32 -0.44,-4.28 l 2.68,-0.16 q 0.2,2.16 0.48,4.4 6.48,-0.24 9.64,-0.44 l 0.08,2.32 q -3.08,0.16 -9.32,0.4 0.48,2.24 1.32,4.6 4.64,-0.16 8.76,-0.4 l 0.08,2.32 q -2.64,0.16 -7.92,0.36 1.36,3.12 3.64,6.48 l -2.44,1.72 q -5.04,-2.32 -9.56,-2.4 -7.36,0.04 -7.36,4.08 0,3.6 4.64,4.68 2.12,0.52 5.76,0.52 4.08,0 8.48,-0.76 l 0.32,2.4 q -4.52,0.72 -8.8,0.72 -13.24,-0.04 -13.32,-7.56 0,-3.68 3.88,-5.28 2.6,-1.04 6.4,-1.08 3.88,0 7.92,1.56 l 0.04,-0.08 q -1.2,-2.24 -2.4,-4.92 -9.24,0.28 -18.2,0.28 v -2.28 q 9.64,0 17.32,-0.28 -0.76,-2.2 -1.28,-4.6 -8.8,0.24 -14.76,0.24 v -2.32 q 7.12,-0.08 14.36,-0.24 z" />
      <path
         id="path185"
         style="font-style:normal;font-variant:normal;font-weight:normal;font-stretch:normal;font-size:40px;line-height:0;font-family:'Ricty Nerd Font';-inkscape-font-specification:'Ricty Nerd Font'"
         d="m 839.10934,320.59813 -0.4,-2.56 q 11.32,-1 16.28,-6.04 1.08,-1.08 1.8,-2.24 -5.84,-3 -12.16,-5.76 l 1.28,-2.44 q 5.96,2.56 12.24,5.76 1.88,-4.28 2.04,-10.64 h -14.88 q -2.08,6.48 -7.12,11.28 l -1.92,-1.76 q 5.48,-5.16 7.16,-13.04 0.12,-0.72 0.4,-2.56 l 2.68,0.12 q -0.12,1.16 -0.56,3.4 h 17.2 v 1.08 q 0,13.44 -7.04,19.52 -5.76,4.84 -17,5.88 z" />
      <path
         id="path187"
         style="font-style:normal;font-variant:normal;font-weight:normal;font-stretch:normal;font-size:40px;line-height:0;font-family:'Ricty Nerd Font';-inkscape-font-specification:'Ricty Nerd Font'"
         d="m 903.18934,290.07813 2.04,-1.04 q 1.6,2.68 3.12,5.52 l -2.04,1 q -1.44,-2.76 -3.12,-5.48 z m -4.92,0.64 2,-1.08 q 1.64,2.64 3.04,5.44 l -1.28,0.6 q -0.08,13.24 -7.04,19.16 -5.76,4.76 -16.96,5.76 l -0.4,-2.56 q 11.52,-1.04 16.44,-6.12 4.6,-4.76 5,-14.16 h -14.2 q -2.08,5.88 -7.12,10.68 l -1.96,-1.76 q 6.44,-6.04 7.72,-15 0.04,-0.12 0.04,-0.32 0,-0.2 0.04,-0.28 l 2.72,0.16 q -0.16,2.12 -0.68,3.96 h 15.2 q -1,-1.96 -2.56,-4.48 z" />
    </g>
    <g
       id="text4204-3"
       style="font-style:normal;font-weight:normal;line-height:0%;font-family:sans-serif;letter-spacing:0px;word-spacing:0px;fill:#75715e;fill-opacity:1;stroke:none;stroke-width:1px;stroke-linecap:butt;stroke-linejoin:miter;stroke-opacity:1"
       aria-label="  ダブルクオート
↓で囲む">
      <path
         id="path190"
         style="font-style:normal;font-variant:normal;font-weight:normal;font-stretch:normal;font-size:40px;line-height:100%;font-family:'Ricty Nerd Font';-inkscape-font-specification:'Ricty Nerd Font'"
         d="m 620.40147,198.81551 2.04,-1.04 q 1.6,2.72 3.12,5.52 l -2.04,1.04 q -1.64,-3.04 -3.12,-5.52 z m -4.92,0.64 2,-1.08 q 1.48,2.44 3.08,5.44 l -1.04,0.52 v 0.52 q 0,13.32 -6.92,19.32 -5.72,4.92 -17.04,5.96 l -0.44,-2.56 q 11.6,-1.08 16.56,-6.28 1,-1.04 1.6,-2 -5.84,-2.96 -12,-5.68 l 1.28,-2.44 q 6.08,2.6 12,5.68 1.8,-4.16 2,-10.52 h -14.56 q -2.12,6.48 -7.08,11.16 l -1.88,-1.76 q 5.48,-5.16 7.16,-13.04 0.12,-0.72 0.4,-2.56 l 2.64,0.16 q -0.12,1.28 -0.52,3.48 h 15.28 q -1.4,-2.52 -2.52,-4.32 z" />
      <path
         id="path192"
         style="font-style:normal;font-variant:normal;font-weight:normal;font-stretch:normal;font-size:40px;line-height:100%;font-family:'Ricty Nerd Font';-inkscape-font-specification:'Ricty Nerd Font'"
         d="m 657.52147,205.85551 h -24.08 v -2.68 h 24.36 q -1.84,-3.24 -2.36,-4.04 l 2,-1.04 q 1.48,2.44 3.08,5.44 v 0.24 q 0,15.04 -9.04,21.2 -5.44,3.68 -14.28,4.64 l -0.44,-2.6 q 12.16,-1.36 17,-8.12 3.4,-4.84 3.76,-13.04 z m 2.84,-7.32 2.04,-1.08 q 1.68,2.84 3.12,5.56 l -2.04,1 q -1.72,-3.16 -3.12,-5.48 z" />
      <path
         id="path194"
         style="font-style:normal;font-variant:normal;font-weight:normal;font-stretch:normal;font-size:40px;line-height:100%;font-family:'Ricty Nerd Font';-inkscape-font-specification:'Ricty Nerd Font'"
         d="m 691.40147,226.57551 q 6.48,-1 9.16,-7.36 1.12,-2.76 1.4,-6.16 l 2.68,0.32 q -0.76,8.72 -6.12,12.96 -3.92,3.08 -9.44,3.08 h -0.6 v -27.84 h 2.92 z m -12.36,-25 h 2.92 v 7.2 q 0,10.4 -1.88,14.72 -1.36,3.24 -4.8,5.24 -1.32,0.72 -1.68,0.88 l -1.48,-2.4 q 3.36,-1.6 4.68,-3.72 1.8,-2.76 2.12,-9.64 0.12,-2.2 0.12,-5.08 z" />
      <path
         id="path196"
         style="font-style:normal;font-variant:normal;font-weight:normal;font-stretch:normal;font-size:40px;line-height:100%;font-family:'Ricty Nerd Font';-inkscape-font-specification:'Ricty Nerd Font'"
         d="m 737.32147,206.21551 h -14.36 q -2.16,6.32 -7.24,11.04 l -1.96,-1.76 q 6.44,-6.08 7.72,-14.8 0.08,-0.56 0.12,-0.8 l 2.72,0.16 q -0.16,1.4 -0.64,3.6 h 16.56 v 0.64 q 0,13.32 -6.96,19.24 -5.68,4.84 -17,5.88 l -0.44,-2.56 q 11.48,-1.08 16.4,-6.12 4.72,-4.76 5.08,-14.52 z" />
      <path
         id="path198"
         style="font-style:normal;font-variant:normal;font-weight:normal;font-stretch:normal;font-size:40px;line-height:100%;font-family:'Ricty Nerd Font';-inkscape-font-specification:'Ricty Nerd Font'"
         d="m 753.44147,205.29551 h 18.64 v -5.8 h 2.72 v 5.8 h 8.24 v 2.48 h -8.24 v 16.56 q 0,3 -0.84,3.84 -0.92,0.8 -3.8,0.8 -2.76,0 -6.12,-0.36 l 0.16,-2.56 q 3.04,0.36 5.76,0.36 1.56,0 1.88,-0.56 0.2,-0.4 0.24,-1.56 v -13.48 q -7.4,7.88 -16.28,13.16 -0.2,0.12 -0.56,0.32 -0.32,0.2 -0.48,0.28 l -1.24,-2.24 q 8.76,-4.96 16.2,-12.72 1.12,-1.2 1.68,-1.84 h -17.96 z" />
      <path
         id="path200"
         style="font-style:normal;font-variant:normal;font-weight:normal;font-stretch:normal;font-size:40px;line-height:100%;font-family:'Ricty Nerd Font';-inkscape-font-specification:'Ricty Nerd Font'"
         d="m 796.68147,216.37551 -3.92,-2.08 1.08,-2.28 2.76,1.48 q 0.08,0 1.12,0.4 l 1,0.04 h 23.96 v 2.76 h -24.44 q -0.24,0 -0.8,-0.08 z" />
      <path
         id="path202"
         style="font-style:normal;font-variant:normal;font-weight:normal;font-stretch:normal;font-size:40px;line-height:100%;font-family:'Ricty Nerd Font';-inkscape-font-specification:'Ricty Nerd Font'"
         d="m 841.80147,200.49551 v 10.64 q 10.08,2.4 20.36,6.24 l -0.88,2.68 q -10.52,-3.92 -19.48,-6.08 v 16.16 h -2.92 v -29.64 z" />
      <path
         id="path204"
         style="font-style:normal;font-variant:normal;font-weight:normal;font-stretch:normal;font-size:40px;line-height:100%;font-family:'Ricty Nerd Font';-inkscape-font-specification:'Ricty Nerd Font'"
         d="m 569.16147,264.13551 5.88,-6.76 1.76,1.52 -8.92,10.16 -8.92,-10.16 1.76,-1.52 5.88,6.76 v -21.48 h 2.56 z" />
      <path
         id="path206"
         style="font-style:normal;font-variant:normal;font-weight:normal;font-stretch:normal;font-size:40px;line-height:100%;font-family:'Ricty Nerd Font';-inkscape-font-specification:'Ricty Nerd Font'"
         d="m 592.40147,245.69551 v -2.56 q 14.44,0 29.44,-0.72 l 0.16,2.56 q -11.72,1.04 -16.4,6.56 -2.56,3.04 -2.56,6.84 0,5.4 4.08,7.84 2.56,1.48 6.2,1.56 2.32,0 4.56,-0.4 l 0.32,2.52 q -2.56,0.44 -4.96,0.44 -7.2,0 -10.72,-4.24 -2.48,-3.08 -2.48,-7.48 0,-6.68 6.12,-10.84 2.28,-1.52 4.76,-2.44 l -0.04,-0.08 q -11.52,0.44 -18.48,0.44 z m 26.64,3.92 2.2,-1.2 q 2.16,3.52 3.48,6.12 l -2.2,1.12 q -1.6,-2.96 -3.48,-6.04 z m -5.08,1.4 2.16,-1.16 q 1.72,2.84 3.36,5.96 l -2.16,1.08 q -1.8,-3.28 -3.36,-5.88 z" />
      <path
         id="path208"
         style="font-style:normal;font-variant:normal;font-weight:normal;font-stretch:normal;font-size:40px;line-height:100%;font-family:'Ricty Nerd Font';-inkscape-font-specification:'Ricty Nerd Font'"
         d="m 660.52147,267.61551 v -25.32 h -25.28 v 25.32 z m -1.08,-10.4 v 2.36 h -5.4 v 6.96 h -2.6 v -6.96 h -7.4 q -0.92,3.6 -3.64,6.28 -0.8,0.8 -1.24,1.16 l -1.84,-1.64 q 2.68,-2.2 3.72,-4.6 l 0.4,-1.2 h -5.16 v -2.36 h 5.64 q 0.36,-2.56 0.36,-6.88 h -5.72 v -2.36 h 5.72 v -4.6 h 2.56 v 4.6 h 6.6 v -4.6 h 2.6 v 4.6 h 5.08 v 2.36 h -5.08 v 6.88 z m -24.2,12.72 v 1.64 h -2.76 v -31.68 h 30.8 v 31.68 h -2.76 v -1.64 z m 9.24,-12.72 h 6.96 v -6.88 h -6.6 q -0.04,4.12 -0.36,6.88 z" />
      <path
         id="path210"
         style="font-style:normal;font-variant:normal;font-weight:normal;font-stretch:normal;font-size:40px;line-height:100%;font-family:'Ricty Nerd Font';-inkscape-font-specification:'Ricty Nerd Font'"
         d="m 674.76147,255.57551 q 0.08,4.56 3.4,4.56 2.24,0 2.72,-2.44 0.2,-1 0.2,-2.12 0,-3.68 -2,-4.48 -0.36,-0.16 -0.92,-0.16 -3.32,0.04 -3.4,4.64 z m 19.68,-10.48 1.32,-2.12 q 4.44,2.76 8.52,5.84 l -1.4,2.04 q -4.28,-3.24 -8.44,-5.76 z m -21.48,-1.44 h 8 v -4.48 h 2.68 v 4.48 h 6.8 v 2.44 h -6.8 v 9.84 q 0,3.56 -1.28,7.4 -0.56,1.6 -0.56,2.24 0,1.04 0.8,1.48 1.44,0.68 7.12,0.72 5.76,0 7.04,-1.2 0.76,-0.64 0.76,-2.24 0,-2.56 -1.56,-8.4 l 2.6,-0.6 q 1.72,6 1.68,9.52 0,3 -1.84,4.12 -2.12,1.28 -8.68,1.28 -7.72,0 -9.64,-1.2 -1.2,-0.76 -1.2,-2.36 0,-0.68 0.68,-2.48 0.52,-1.44 0.76,-2.4 l -0.08,-0.04 q -1.24,0.64 -2.56,0.72 -3.48,0 -4.72,-3.24 -0.56,-1.52 -0.64,-3.68 0,-5.16 3.28,-6.52 0.92,-0.4 2.08,-0.4 1.8,0.04 3.2,1.32 l 0.08,-0.04 v -3.84 h -8 z" />
    </g>
    <g
       transform="translate(20.713263,-14.322138)"
       id="g4165">
      <g
         id="text3344"
         style="font-style:normal;font-variant:normal;font-weight:normal;font-stretch:normal;line-height:0%;font-family:'Ricty Nerd Font';-inkscape-font-specification:'Ricty Nerd Font';letter-spacing:0px;word-spacing:0px;fill:#000000;fill-opacity:1;stroke:none;stroke-width:1px;stroke-linecap:butt;stroke-linejoin:miter;stroke-opacity:1"
         aria-label="&lt;タグ名 属性名=&quot;値&quot; &gt;
  中身
&lt;/タグ名&gt;">
        <path
           id="path213"
           style="font-size:40px;line-height:1.5;fill:#f8f8f2;fill-opacity:1"
           d="m 255.44788,310.9927 -13.88,7.08 14,7.84 v 3.04 l -17.04,-9.96 v -1.92 l 16.92,-8.92 z" />
        <path
           id="path215"
           style="fill:#f92672;fill-opacity:1"
           d="m 264.84788,332.1927 -0.4,-2.56 q 11.32,-1 16.28,-6.04 1.08,-1.08 1.8,-2.24 -5.84,-3 -12.16,-5.76 l 1.28,-2.44 q 5.96,2.56 12.24,5.76 1.88,-4.28 2.04,-10.64 h -14.88 q -2.08,6.48 -7.12,11.28 l -1.92,-1.76 q 5.48,-5.16 7.16,-13.04 0.12,-0.72 0.4,-2.56 l 2.68,0.12 q -0.12,1.16 -0.56,3.4 h 17.2 v 1.08 q 0,13.44 -7.04,19.52 -5.76,4.84 -17,5.88 z" />
        <path
           id="path217"
           style="fill:#f92672;fill-opacity:1"
           d="m 328.92788,301.6727 2.04,-1.04 q 1.6,2.68 3.12,5.52 l -2.04,1 q -1.44,-2.76 -3.12,-5.48 z m -4.92,0.64 2,-1.08 q 1.64,2.64 3.04,5.44 l -1.28,0.6 q -0.08,13.24 -7.04,19.16 -5.76,4.76 -16.96,5.76 l -0.4,-2.56 q 11.52,-1.04 16.44,-6.12 4.6,-4.76 5,-14.16 h -14.2 q -2.08,5.88 -7.12,10.68 l -1.96,-1.76 q 6.44,-6.04 7.72,-15 0.04,-0.12 0.04,-0.32 0,-0.2 0.04,-0.28 l 2.72,0.16 q -0.16,2.12 -0.68,3.96 h 15.2 q -1,-1.96 -2.56,-4.48 z" />
        <path
           id="path219"
           style="fill:#f92672;fill-opacity:1"
           d="m 368.44788,329.3927 v -8.48 h -15.84 v 8.48 z m -18.64,-7.88 q -4.48,1.92 -9.44,3.12 l -0.8,-2.28 q 8.36,-2 15.04,-6.08 -2.96,-3.24 -5.32,-5.56 l 2,-1.72 q 3.4,3.28 5.6,5.8 5.88,-4.2 7.88,-8.6 h -13.24 q -3.96,3.84 -9.52,6.92 l -1.2,-2.16 q 8.08,-4.64 12.12,-10.28 0.04,0 0.04,-0.04 0,-0.04 0.04,-0.08 l 2.28,1.16 q -0.32,0.52 -1.56,2.08 h 13.92 v 2.4 q -2.56,6.16 -10.08,11.2 -0.24,0.16 -1.84,1.12 h 15.56 v 15.12 h -2.84 v -1.96 h -15.84 v 1.96 h -2.8 z" />
        <path
           id="path221"
           style="fill:#a6e22e;fill-opacity:1"
           d="m 425.12788,324.7527 q 1.52,2.96 2.76,5.76 l -1.88,0.64 q 0.48,0.04 1.6,0.04 1.08,-0.08 1.12,-0.28 0.08,-0.32 0.08,-1.08 v -5.48 h -9.28 v 3.12 l 3.96,-0.44 q -0.2,-0.4 -0.48,-0.92 -0.24,-0.52 -0.28,-0.64 z m -18.44,-14.36 q 12.32,0 23.12,-1.32 l 0.32,2.08 q -5.04,0.6 -10.6,0.88 v 1.8 h 10 v 6.96 h -2.8 -7.2 v 1.4 h 12 v 7.92 q 0,2.4 -0.6,2.92 -0.64,0.48 -2.6,0.44 -1.48,0 -4.32,-0.16 l -0.12,-2.28 q 1.32,0.12 1.48,0.08 -0.08,-0.16 -0.4,-0.84 -0.28,-0.72 -0.52,-1.28 -7.84,1.12 -15.16,1.4 l -0.12,-2.2 q 2.36,-0.08 7.64,-0.44 v -3.4 h -8.84 v 9.28 h -2.72 v -11.44 h 11.56 v -1.4 h -7.12 -2.6 v -6.96 h 9.72 v -1.64 q -4.88,0.16 -10.08,0.24 z m -1.56,4.88 q 0,10.76 -3.76,18.16 l -2.16,-2.12 q 3.12,-6.88 3.12,-17.68 v -11.36 h 28.36 v 6.6 h -25.56 z m 21.6,3.68 v -3.24 h -7.2 v 3.24 z m -17.04,0 h 7.12 v -3.24 h -7.12 z m -4.56,-12.12 h 22.68 v -2.32 h -22.68 z" />
        <path
           id="path223"
           style="fill:#a6e22e;fill-opacity:1"
           d="m 463.24788,330.2727 h 9.68 v 2.48 h -23.96 v -2.48 h 11.4 v -9.76 h -8.76 v -2.4 h 8.76 v -8.04 h -5.84 q -1.16,4.12 -2.56,7.36 l -2.48,-0.92 -1.24,0.24 q -0.48,-3.6 -1.48,-8.12 l 2.08,-0.44 q 0.96,4.44 1.28,6.4 2.28,-5.96 3.4,-12.36 l 2.64,0.4 q -0.44,2.72 -0.96,4.96 h 5.16 v -6.12 h 2.88 v 6.12 h 9.2 v 2.48 h -9.2 v 8.04 h 8.2 v 2.4 h -8.2 z m -19.56,3.72 v -32.52 h 2.84 v 32.52 z m -2.8,-12.28 -2.24,-0.4 q 1.28,-5.88 1.84,-12.28 l 2.2,0.2 q -0.48,6.4 -1.8,12.48 z" />
        <path
           id="path225"
           style="fill:#a6e22e;fill-opacity:1"
           d="m 508.44788,329.3927 v -8.48 h -15.84 v 8.48 z m -18.64,-7.88 q -4.48,1.92 -9.44,3.12 l -0.8,-2.28 q 8.36,-2 15.04,-6.08 -2.96,-3.24 -5.32,-5.56 l 2,-1.72 q 3.4,3.28 5.6,5.8 5.88,-4.2 7.88,-8.6 h -13.24 q -3.96,3.84 -9.52,6.92 l -1.2,-2.16 q 8.08,-4.64 12.12,-10.28 0.04,0 0.04,-0.04 0,-0.04 0.04,-0.08 l 2.28,1.16 q -0.32,0.52 -1.56,2.08 h 13.92 v 2.4 q -2.56,6.16 -10.08,11.2 -0.24,0.16 -1.84,1.12 h 15.56 v 15.12 h -2.84 v -1.96 h -15.84 v 1.96 h -2.8 z" />
        <path
           id="path227"
           style="font-size:40px;line-height:1.5;fill:#f8f8f2;fill-opacity:1"
           d="m 518.92788,321.5927 h 16.44 v 2.44 h -16.44 z m 0,-8.28 h 16.44 v 2.44 h -16.44 z" />
        <path
           id="path229"
           style="font-size:40px;line-height:1.5;fill:#f8f8f2;fill-opacity:1"
           d="m 542.84788,308.9127 -0.28,-2.52 q 0,-1.12 0.52,-1.64 0.56,-0.56 1.2,-0.56 0.68,0 1.24,0.6 0.56,0.64 0.56,1.92 0,1.32 -1.32,5 l -0.96,2.64 -2.24,-0.52 0.88,-2.72 q 0.08,-0.28 0.28,-1.16 0.12,-0.56 0.12,-1.04 z m 6.88,0 -0.24,-2.52 q 0,-1.12 0.52,-1.64 0.56,-0.56 1.2,-0.56 0.72,0 1.24,0.6 0.56,0.64 0.56,1.92 0,1.28 -1.36,5 l -0.96,2.64 -2.2,-0.52 0.88,-2.72 q 0.36,-1.2 0.36,-2.2 z" />
        <path
           id="path231"
           style="fill:#e6db74;fill-opacity:1"
           d="m 571.68788,310.1927 v 19.64 h 21.36 v 2.4 h -21.36 v 1.76 h -2.8 v -23.8 z m 16.56,14.92 v -3.24 h -10.48 v 3.24 z m -19.48,-18.84 v -2.36 h 12 q 0,-0.12 0.08,-0.64 0.08,-0.56 0.12,-0.96 0.04,-0.36 0.12,-0.76 0.08,-0.44 0.08,-0.52 l 2.8,0.08 q -0.04,0.4 -0.2,1.32 -0.12,0.92 -0.2,1.48 h 9.48 v 2.36 h -9.84 l -0.36,1.92 q -0.16,0.72 -0.24,1.16 h 8.44 v 18.04 h -13.28 -2.72 v -18.04 h 4.72 q 0.12,-0.68 0.6,-3.08 z m 9,8.4 h 10.48 v -3.04 h -10.48 z m 0,2.04 v 3.12 h 10.48 v -3.12 z m -12.52,-5.36 v 22.64 h -2.72 v -17.36 q -1.4,2.56 -2.96,4.56 l -1.24,-3.08 q 5.08,-7.08 7.08,-16.76 l 2.64,0.52 q -0.96,5.24 -2.8,9.48 z" />
        <path
           id="path233"
           style="font-size:40px;line-height:1.5;fill:#f8f8f2;fill-opacity:1"
           d="m 602.84788,308.9127 -0.28,-2.52 q 0,-1.12 0.52,-1.64 0.56,-0.56 1.2,-0.56 0.68,0 1.24,0.6 0.56,0.64 0.56,1.92 0,1.32 -1.32,5 l -0.96,2.64 -2.24,-0.52 0.88,-2.72 q 0.08,-0.28 0.28,-1.16 0.12,-0.56 0.12,-1.04 z m 6.88,0 -0.24,-2.52 q 0,-1.12 0.52,-1.64 0.56,-0.56 1.2,-0.56 0.72,0 1.24,0.6 0.56,0.64 0.56,1.92 0,1.28 -1.36,5 l -0.96,2.64 -2.2,-0.52 0.88,-2.72 q 0.36,-1.2 0.36,-2.2 z" />
        <path
           id="path235"
           style="font-size:40px;line-height:1.5;fill:#f8f8f2;fill-opacity:1"
           d="m 638.80788,310.9927 v -2.84 l 16.96,8.92 v 1.92 l -17.04,9.96 v -3.04 l 13.96,-7.84 z" />
        <path
           id="path237"
           style="font-size:40px;line-height:1.5;fill:#f8f8f2;fill-opacity:1"
           d="m 284.04788,379.7927 h 10.76 v -10 h -10.76 z m 0,2.4 v 2.36 h -2.72 v -17.28 h 13.48 v -6.16 h 2.88 v 6.16 h 13.48 v 17.28 h -2.72 v -2.36 h -10.76 v 12.16 h -2.88 v -12.16 z m 13.64,-2.4 h 10.76 v -10 h -10.76 z" />
        <path
           id="path239"
           style="font-size:40px;line-height:1.5;fill:#f8f8f2;fill-opacity:1"
           d="m 343.60788,393.4727 q -1.8,0 -6.32,-0.16 l -0.08,-2.4 q 5.32,0.2 6,0.16 1.72,0 2.04,-0.32 0.32,-0.4 0.32,-2.04 v -5.4 q -10.48,6.72 -24.28,10.56 l -0.84,-2.36 q 12.44,-3.32 21.96,-8.96 -10.32,1.08 -22,1.6 l -0.12,-2.48 q 0.24,-0.04 0.96,-0.04 0.72,-0.04 1.04,-0.04 1.44,-0.08 2.08,-0.12 v -16.76 h 8.96 q 1.04,-2.4 1.56,-4.16 l 2.88,0.32 q -0.56,1.8 -1.4,3.84 h 12.04 v 13.68 q 1.8,-1.44 3.52,-3.12 l 1.52,1.92 q -2.16,2.08 -5.04,4.12 v 7.32 q 0,3.16 -0.64,3.96 -0.64,0.8 -3.24,0.88 z m -16.4,-12.12 q 10.12,-0.52 18.36,-1.4 v -2.28 h -18.36 z m 0,-11.16 h 18.36 v -3.12 h -18.36 z m 0,2.12 v 3.32 h 18.36 v -3.32 z" />
        <path
           id="path241"
           style="font-size:40px;line-height:1.5;fill:#f8f8f2;fill-opacity:1"
           d="m 255.44788,430.9927 -13.88,7.08 14,7.84 v 3.04 l -17.04,-9.96 v -1.92 l 16.92,-8.92 z" />
        <path
           id="path243"
           style="font-size:40px;line-height:1.5;fill:#f8f8f2;fill-opacity:1"
           d="m 259.68788,451.3527 12.52,-27.12 2.4,1.24 -12.56,27.04 z" />
        <path
           id="path245"
           style="fill:#f92672;fill-opacity:1"
           d="m 284.84788,452.1927 -0.4,-2.56 q 11.32,-1 16.28,-6.04 1.08,-1.08 1.8,-2.24 -5.84,-3 -12.16,-5.76 l 1.28,-2.44 q 5.96,2.56 12.24,5.76 1.88,-4.28 2.04,-10.64 h -14.88 q -2.08,6.48 -7.12,11.28 l -1.92,-1.76 q 5.48,-5.16 7.16,-13.04 0.12,-0.72 0.4,-2.56 l 2.68,0.12 q -0.12,1.16 -0.56,3.4 h 17.2 v 1.08 q 0,13.44 -7.04,19.52 -5.76,4.84 -17,5.88 z" />
        <path
           id="path247"
           style="fill:#f92672;fill-opacity:1"
           d="m 348.92788,421.6727 2.04,-1.04 q 1.6,2.68 3.12,5.52 l -2.04,1 q -1.44,-2.76 -3.12,-5.48 z m -4.92,0.64 2,-1.08 q 1.64,2.64 3.04,5.44 l -1.28,0.6 q -0.08,13.24 -7.04,19.16 -5.76,4.76 -16.96,5.76 l -0.4,-2.56 q 11.52,-1.04 16.44,-6.12 4.6,-4.76 5,-14.16 h -14.2 q -2.08,5.88 -7.12,10.68 l -1.96,-1.76 q 6.44,-6.04 7.72,-15 0.04,-0.12 0.04,-0.32 0,-0.2 0.04,-0.28 l 2.72,0.16 q -0.16,2.12 -0.68,3.96 h 15.2 q -1,-1.96 -2.56,-4.48 z" />
        <path
           id="path249"
           style="fill:#f92672;fill-opacity:1"
           d="m 388.44788,449.3927 v -8.48 h -15.84 v 8.48 z m -18.64,-7.88 q -4.48,1.92 -9.44,3.12 l -0.8,-2.28 q 8.36,-2 15.04,-6.08 -2.96,-3.24 -5.32,-5.56 l 2,-1.72 q 3.4,3.28 5.6,5.8 5.88,-4.2 7.88,-8.6 h -13.24 q -3.96,3.84 -9.52,6.92 l -1.2,-2.16 q 8.08,-4.64 12.12,-10.28 0.04,0 0.04,-0.04 0,-0.04 0.04,-0.08 l 2.28,1.16 q -0.32,0.52 -1.56,2.08 h 13.92 v 2.4 q -2.56,6.16 -10.08,11.2 -0.24,0.16 -1.84,1.12 h 15.56 v 15.12 h -2.84 v -1.96 h -15.84 v 1.96 h -2.8 z" />
        <path
           id="path251"
           style="font-size:40px;line-height:1.5;fill:#f8f8f2;fill-opacity:1"
           d="m 398.80788,430.9927 v -2.84 l 16.96,8.92 v 1.92 l -17.04,9.96 v -3.04 l 13.96,-7.84 z" />
      </g>
      <path
         id="rect4226"
         d="m 377.28766,302.75876 h 14.97673 v 30.97673 h -14.97673 z"
         style="opacity:0.5;fill:none;fill-opacity:1;stroke:#f8f8f2;stroke-width:2.00000024;stroke-linecap:butt;stroke-linejoin:bevel;stroke-miterlimit:4;stroke-dasharray:none;stroke-opacity:1" />
      <g
         id="g4254"
         transform="translate(-378.06952,-96.370662)">
        <path
           id="rect4226-7"
           d="m 617.68536,460.36884 h 14.97674 v 30.97673 h -14.97674 z"
           style="opacity:0.5;fill:none;fill-opacity:1;stroke:#f8f8f2;stroke-width:2.00000024;stroke-linecap:butt;stroke-linejoin:bevel;stroke-miterlimit:4;stroke-dasharray:none;stroke-opacity:1" />
        <path
           id="rect4226-5"
           d="m 637.45367,460.36884 h 14.97674 v 30.97673 h -14.97674 z"
           style="opacity:0.5;fill:none;fill-opacity:1;stroke:#f8f8f2;stroke-width:2.00000024;stroke-linecap:butt;stroke-linejoin:bevel;stroke-miterlimit:4;stroke-dasharray:none;stroke-opacity:1" />
      </g>
    </g>
    <g
       id="text4204-3-3"
       style="font-style:normal;font-weight:normal;line-height:0%;font-family:sans-serif;letter-spacing:0px;word-spacing:0px;fill:#75715e;fill-opacity:1;stroke:none;stroke-width:1px;stroke-linecap:butt;stroke-linejoin:miter;stroke-opacity:1"
       aria-label="半角スペース↓">
      <path
         id="path257"
         style="font-style:normal;font-variant:normal;font-weight:normal;font-stretch:normal;font-size:40px;line-height:0;font-family:'Ricty Nerd Font';-inkscape-font-specification:'Ricty Nerd Font'"
         d="m 182.67607,261.54579 v 2.52 h -15 v 9.28 h -2.8 v -9.28 h -15 v -2.52 h 15 v -5.68 h -13.88 v -2.44 h 13.88 v -12.6 h 2.8 v 12.6 h 13.88 v 2.44 h -13.88 v 5.68 z m -2.8,-18.28 q -2.08,4.6 -5.4,9.24 l -2.48,-1.12 q 3.16,-4.36 5.28,-9.08 z m -24.72,-0.88 q 2.88,4.24 5.44,9.04 l -2.56,1.04 q -2.36,-4.48 -5.36,-9 z" />
      <path
         id="path259"
         style="font-style:normal;font-variant:normal;font-weight:normal;font-stretch:normal;font-size:40px;line-height:0;font-family:'Ricty Nerd Font';-inkscape-font-specification:'Ricty Nerd Font'"
         d="m 205.35607,250.42579 h -8.6 v 4.64 h 8.6 z m -14.08,3.48 -1.24,-2.48 q 6.44,-5.12 9.48,-11.92 l 2.68,0.52 q -0.28,0.8 -0.96,2.12 h 12.12 v 2.32 q -1.44,1.76 -3.32,3.6 h 10.56 v 20.28 q 0,3.04 -0.68,3.84 -0.64,0.76 -3.2,0.8 h -0.6 q -1.28,0 -5.12,-0.16 l -0.08,-2.4 q 4.68,0.2 4.76,0.2 1.64,0 1.88,-0.4 0.24,-0.36 0.24,-1.76 v -3.92 h -21.76 q -0.96,5.04 -3.72,8.76 l -2.32,-1.8 q 2.76,-3.84 3.56,-9.2 0.4,-2.8 0.4,-7.16 v -3.44 q -0.88,0.8 -2.68,2.2 z m 16.84,1.16 h 9.68 v -4.64 h -9.68 z m 0,2.28 v 4.92 h 9.68 v -4.92 z m -2.76,0 h -8.6 q -0.08,2.64 -0.36,4.92 h 8.96 z m 1.04,-9.28 q 2.12,-1.88 3.68,-3.6 h -10.08 q -1.2,1.88 -2.6,3.6 z" />
      <path
         id="path261"
         style="font-style:normal;font-variant:normal;font-weight:normal;font-stretch:normal;font-size:40px;line-height:0;font-family:'Ricty Nerd Font';-inkscape-font-specification:'Ricty Nerd Font'"
         d="m 234.99607,246.70579 v -2.6 h 22.56 v 2.6 q -2.52,6.2 -7.84,11.92 5.08,4.72 10.84,10.68 l -1.96,1.88 q -5.36,-5.56 -10.8,-10.68 -6.04,5.8 -14.68,10.28 l -1.24,-2.36 q 12.72,-6.56 19.36,-16.04 1.96,-2.76 3.28,-5.68 z" />
      <path
         id="path263"
         style="font-style:normal;font-variant:normal;font-weight:normal;font-stretch:normal;font-size:40px;line-height:0;font-family:'Ricty Nerd Font';-inkscape-font-specification:'Ricty Nerd Font'"
         d="m 301.11607,267.22579 1.92,-2.16 q -6.48,-5.6 -13.88,-12.84 -3.04,-2.92 -4.16,-3.44 -1.04,-0.48 -2.2,-0.48 -1.84,0 -3.48,1.52 -0.76,0.76 -3.84,4.6 -0.76,0.84 -1.84,2.16 -0.32,0.32 -2.68,0.44 -0.24,0.04 -0.64,0.04 v 2.92 q 2.04,0 2.6,-0.08 1.92,-0.28 2.96,-1.44 4.8,-5.68 5.8,-6.68 0.64,-0.56 1.12,-0.56 0.6,0 1.64,0.92 0.08,0.04 1.8,1.64 6.52,6.16 14.88,13.44 z m -5,-15.68 q 2.4,0 3.76,-1.96 0.84,-1.2 0.84,-2.64 0,-2.36 -1.92,-3.72 -1.24,-0.88 -2.68,-0.88 -2.4,0 -3.76,1.92 -0.88,1.24 -0.88,2.68 0,2.4 1.96,3.76 1.24,0.84 2.68,0.84 z m 0,-11.4 q 3.2,0 5.24,2.48 1.56,1.88 1.56,4.32 0,3.2 -2.48,5.24 -1.84,1.56 -4.32,1.56 -3.2,0 -5.24,-2.44 -1.56,-1.92 -1.56,-4.36 0,-3.2 2.44,-5.24 1.92,-1.56 4.36,-1.56 z" />
      <path
         id="path265"
         style="font-style:normal;font-variant:normal;font-weight:normal;font-stretch:normal;font-size:40px;line-height:0;font-family:'Ricty Nerd Font';-inkscape-font-specification:'Ricty Nerd Font'"
         d="m 315.07607,258.14579 -3.92,-2.08 1.08,-2.28 2.76,1.48 q 0.08,0 1.12,0.4 l 1,0.04 h 23.96 v 2.76 h -24.44 q -0.24,0 -0.8,-0.08 z" />
      <path
         id="path267"
         style="font-style:normal;font-variant:normal;font-weight:normal;font-stretch:normal;font-size:40px;line-height:0;font-family:'Ricty Nerd Font';-inkscape-font-specification:'Ricty Nerd Font'"
         d="m 354.99607,246.70579 v -2.6 h 22.56 v 2.6 q -2.52,6.2 -7.84,11.92 5.08,4.72 10.84,10.68 l -1.96,1.88 q -5.36,-5.56 -10.8,-10.68 -6.04,5.8 -14.68,10.28 l -1.24,-2.36 q 12.72,-6.56 19.36,-16.04 1.96,-2.76 3.28,-5.68 z" />
      <path
         id="path269"
         style="font-style:normal;font-variant:normal;font-weight:normal;font-stretch:normal;font-size:40px;line-height:0;font-family:'Ricty Nerd Font';-inkscape-font-specification:'Ricty Nerd Font'"
         d="m 407.55607,265.90579 5.88,-6.76 1.76,1.52 -8.92,10.16 -8.92,-10.16 1.76,-1.52 5.88,6.76 v -21.48 h 2.56 z" />
    </g>
    <g
       id="text4204-6"
       style="font-style:normal;font-weight:normal;line-height:0%;font-family:sans-serif;letter-spacing:0px;word-spacing:0px;fill:#75715e;fill-opacity:1;stroke:none;stroke-width:1px;stroke-linecap:butt;stroke-linejoin:miter;stroke-opacity:1"
       aria-label="← 閉じタグ">
      <path
         id="path272"
         style="font-style:normal;font-variant:normal;font-weight:normal;font-stretch:normal;font-size:40px;line-height:0;font-family:'Ricty Nerd Font';-inkscape-font-specification:'Ricty Nerd Font'"
         d="m 456.3949,429.52478 6.76,5.88 -1.52,1.76 -10.16,-8.92 10.16,-8.92 1.52,1.76 -6.76,5.88 h 21.48 v 2.56 z" />
      <path
         id="path274"
         style="font-style:normal;font-variant:normal;font-weight:normal;font-stretch:normal;font-size:40px;line-height:0;font-family:'Ricty Nerd Font';-inkscape-font-specification:'Ricty Nerd Font'"
         d="m 515.5549,441.28478 -1.28,-2.04 q 5.4,-2.72 10.24,-7.2 h -9.4 v -2.24 h 11.2 v -2.56 h 2.64 v 2.56 h 5.28 v 2.24 h -5.28 v 8.76 q 0,1.84 -0.6,2.24 -0.64,0.48 -3.08,0.48 -1.92,0 -3.72,-0.16 l -0.04,-2.28 q 2.48,0.2 3.64,0.2 1.04,0 1.08,-0.36 0.08,-0.24 0.08,-0.76 v -6.6 q -5.08,4.72 -10.76,7.72 z m -6.36,3.04 v -31.32 h 14.08 v 13.16 h -11.28 v 18.16 z m 26.4,-0.24 q -1.28,0 -4,-0.2 l -0.12,-2.44 q 3.4,0.2 3.68,0.2 1.6,0 1.92,-0.36 0.2,-0.32 0.28,-1.76 v -13.36 h -11.68 v -13.16 h 14.48 v 26.44 q 0,3 -0.72,3.8 -0.68,0.76 -3.24,0.84 z m -23.6,-25.44 h 8.56 v -3.32 h -8.56 z m 0,2 v 3.44 h 8.56 v -3.44 z m 25.36,-2 v -3.32 h -8.92 v 3.32 z m 0,2 h -8.92 v 3.44 h 8.92 z" />
      <path
         id="path276"
         style="font-style:normal;font-variant:normal;font-weight:normal;font-stretch:normal;font-size:40px;line-height:0;font-family:'Ricty Nerd Font';-inkscape-font-specification:'Ricty Nerd Font'"
         d="m 553.5549,413.36478 2.84,0.08 q -0.4,8.64 -0.4,16.44 0,7.16 2.16,9.4 1.64,1.52 5.16,1.52 6.08,0 10.16,-6.88 1.2,-2.08 2.12,-4.44 l 2.56,0.96 q -3.48,9.44 -10.04,12.08 -2.32,0.92 -4.8,0.92 -5.56,0 -7.76,-2.68 -2.4,-3 -2.4,-10.88 -0.04,-5.72 0.4,-16.52 z m 17.68,0.72 2.36,-1.28 q 2.04,3.28 3.8,6.64 l -2.4,1.2 q -1.28,-2.4 -3.76,-6.56 z m -5.4,1.52 2.36,-1.24 q 2,3.32 3.72,6.56 l -2.36,1.16 q -1.52,-2.76 -3.72,-6.48 z" />
      <path
         id="path278"
         style="font-style:normal;font-variant:normal;font-weight:normal;font-stretch:normal;font-size:40px;line-height:0;font-family:'Ricty Nerd Font';-inkscape-font-specification:'Ricty Nerd Font'"
         d="m 593.2749,442.88478 -0.4,-2.56 q 11.32,-1 16.28,-6.04 1.08,-1.08 1.8,-2.24 -5.84,-3 -12.16,-5.76 l 1.28,-2.44 q 5.96,2.56 12.24,5.76 1.88,-4.28 2.04,-10.64 h -14.88 q -2.08,6.48 -7.12,11.28 l -1.92,-1.76 q 5.48,-5.16 7.16,-13.04 0.12,-0.72 0.4,-2.56 l 2.68,0.12 q -0.12,1.16 -0.56,3.4 h 17.2 v 1.08 q 0,13.44 -7.04,19.52 -5.76,4.84 -17,5.88 z" />
      <path
         id="path280"
         style="font-style:normal;font-variant:normal;font-weight:normal;font-stretch:normal;font-size:40px;line-height:0;font-family:'Ricty Nerd Font';-inkscape-font-specification:'Ricty Nerd Font'"
         d="m 657.3549,412.36478 2.04,-1.04 q 1.6,2.68 3.12,5.52 l -2.04,1 q -1.44,-2.76 -3.12,-5.48 z m -4.92,0.64 2,-1.08 q 1.64,2.64 3.04,5.44 l -1.28,0.6 q -0.08,13.24 -7.04,19.16 -5.76,4.76 -16.96,5.76 l -0.4,-2.56 q 11.52,-1.04 16.44,-6.12 4.6,-4.76 5,-14.16 h -14.2 q -2.08,5.88 -7.12,10.68 l -1.96,-1.76 q 6.44,-6.04 7.72,-15 0.04,-0.12 0.04,-0.32 0,-0.2 0.04,-0.28 l 2.72,0.16 q -0.16,2.12 -0.68,3.96 h 15.2 q -1,-1.96 -2.56,-4.48 z" />
    </g>
    <g
       id="text4204-3-3-9"
       style="font-style:normal;font-weight:normal;line-height:0%;font-family:sans-serif;letter-spacing:0px;word-spacing:0px;fill:#75715e;fill-opacity:1;stroke:none;stroke-width:1px;stroke-linecap:butt;stroke-linejoin:miter;stroke-opacity:1"
       aria-label="↓小なり ">
      <path
         id="path283"
         style="font-style:normal;font-variant:normal;font-weight:normal;font-stretch:normal;font-size:40px;line-height:100%;font-family:'Ricty Nerd Font';-inkscape-font-specification:'Ricty Nerd Font'"
         d="m 431.1049,395.15408 5.88,-6.76 1.76,1.52 -8.92,10.16 -8.92,-10.16 1.76,-1.52 5.88,6.76 v -21.48 h 2.56 z" />
      <path
         id="path285"
         style="font-style:normal;font-variant:normal;font-weight:normal;font-stretch:normal;font-size:40px;line-height:100%;font-family:'Ricty Nerd Font';-inkscape-font-specification:'Ricty Nerd Font'"
         d="m 478.1049,378.59408 2.68,-0.92 q 3.84,8.8 6.24,17.96 l -2.76,0.8 q -2.52,-9.2 -6.16,-17.84 z m -25.48,16.6 q 3.88,-7.68 5.68,-17.28 l 2.76,0.52 q -1.8,9.84 -5.72,17.76 z m 16.12,-25.12 h 2.92 v 27.64 q 0,3.04 -0.64,3.8 -0.6,0.8 -3.12,0.84 h -0.72 q -0.52,0 -5.64,-0.2 l -0.08,-2.52 q 4.76,0.2 5.28,0.16 1.56,0 1.72,-0.28 0.2,-0.28 0.28,-1.84 z" />
      <path
         id="path287"
         style="font-style:normal;font-variant:normal;font-weight:normal;font-stretch:normal;font-size:40px;line-height:100%;font-family:'Ricty Nerd Font';-inkscape-font-specification:'Ricty Nerd Font'"
         d="m 515.3449,392.55408 q -2.8,-1.32 -5.24,-1.32 -5.04,0.04 -5.08,3.56 0,2.8 2.96,3.64 0.92,0.2 2.12,0.28 3.44,0 4.48,-1.52 0.76,-1.16 0.76,-3.76 z m -21.08,-14.84 v -2.4 h 6.76 q 0.92,-2.96 1.6,-5.56 l 2.52,0.36 q -0.56,2.44 -1.44,5.2 h 6.84 v 2.4 h -7.56 q -2.8,8.88 -7.04,18.48 l -2.44,-0.88 q 3.92,-8.88 6.76,-17.6 z m 31.24,0.72 q -3.52,-0.56 -7.48,-0.64 v 13.36 q 3.44,1.8 7.76,5.4 l -1.64,1.96 q -3.88,-3.12 -6.12,-4.48 -0.16,4.68 -3.16,6.12 -1.8,0.84 -4.76,0.84 -5.24,0 -7,-3.2 -0.68,-1.28 -0.76,-3 0,-3.96 3.88,-5.32 1.68,-0.6 3.88,-0.6 2.44,0 5.24,1.08 v -14.64 q 6,0 10.48,0.72 z" />
      <path
         id="path289"
         style="font-style:normal;font-variant:normal;font-weight:normal;font-stretch:normal;font-size:40px;line-height:100%;font-family:'Ricty Nerd Font';-inkscape-font-specification:'Ricty Nerd Font'"
         d="m 538.8249,371.87408 h 2.72 v 9.92 h 0.08 q 2.36,-5.64 6.84,-7.96 2.32,-1.24 4.88,-1.24 5.48,0 7.72,5.12 1.12,2.64 1.12,6.56 0,10.68 -7.48,14.4 -4.6,2.32 -12.52,2.32 l -0.12,-2.56 q 10.64,0 14.48,-4.64 2.72,-3.36 2.76,-9.52 0,-7.96 -5.04,-8.88 -0.68,-0.12 -1.16,-0.08 -3.56,0 -6.8,3.4 -3.8,4.04 -4.64,10 -0.12,0.76 -0.12,1.52 h -2.72 z" />
    </g>
    <g
       id="text4204-3-3-9-2"
       style="font-style:normal;font-weight:normal;line-height:0%;font-family:sans-serif;letter-spacing:0px;word-spacing:0px;fill:#75715e;fill-opacity:1;stroke:none;stroke-width:1px;stroke-linecap:butt;stroke-linejoin:miter;stroke-opacity:1"
       aria-label="大なり↑ 
 ">
      <path
         id="path292"
         style="font-style:normal;font-variant:normal;font-weight:normal;font-stretch:normal;font-size:40px;line-height:100%;font-family:'Ricty Nerd Font';-inkscape-font-specification:'Ricty Nerd Font'"
         d="m 123.07427,457.21261 v -2.52 h 14.12 v -7.28 h 2.88 v 7.28 h 14.12 v 2.52 h -14.04 q 0.72,9.36 8,15.6 2.84,2.36 6.6,4.16 l -1.48,2.2 q -7.2,-3.28 -11.6,-9.96 -1.8,-2.76 -2.92,-6 -2.56,7.48 -9.04,12.52 -2.48,2 -5.72,3.44 l -1.48,-2.2 q 8.88,-4.16 12.56,-11.96 1.72,-3.68 2.04,-7.8 z" />
      <path
         id="path294"
         style="font-style:normal;font-variant:normal;font-weight:normal;font-stretch:normal;font-size:40px;line-height:100%;font-family:'Ricty Nerd Font';-inkscape-font-specification:'Ricty Nerd Font'"
         d="m 184.15427,469.89261 q -2.8,-1.32 -5.24,-1.32 -5.04,0.04 -5.08,3.56 0,2.8 2.96,3.64 0.92,0.2 2.12,0.28 3.44,0 4.48,-1.52 0.76,-1.16 0.76,-3.76 z m -21.08,-14.84 v -2.4 h 6.76 q 0.92,-2.96 1.6,-5.56 l 2.52,0.36 q -0.56,2.44 -1.44,5.2 h 6.84 v 2.4 h -7.56 q -2.8,8.88 -7.04,18.48 l -2.44,-0.88 q 3.92,-8.88 6.76,-17.6 z m 31.24,0.72 q -3.52,-0.56 -7.48,-0.64 v 13.36 q 3.44,1.8 7.76,5.4 l -1.64,1.96 q -3.88,-3.12 -6.12,-4.48 -0.16,4.68 -3.16,6.12 -1.8,0.84 -4.76,0.84 -5.24,0 -7,-3.2 -0.68,-1.28 -0.76,-3 0,-3.96 3.88,-5.32 1.68,-0.6 3.88,-0.6 2.44,0 5.24,1.08 v -14.64 q 6,0 10.48,0.72 z" />
      <path
         id="path296"
         style="font-style:normal;font-variant:normal;font-weight:normal;font-stretch:normal;font-size:40px;line-height:100%;font-family:'Ricty Nerd Font';-inkscape-font-specification:'Ricty Nerd Font'"
         d="m 207.63427,449.21261 h 2.72 v 9.92 h 0.08 q 2.36,-5.64 6.84,-7.96 2.32,-1.24 4.88,-1.24 5.48,0 7.72,5.12 1.12,2.64 1.12,6.56 0,10.68 -7.48,14.4 -4.6,2.32 -12.52,2.32 l -0.12,-2.56 q 10.64,0 14.48,-4.64 2.72,-3.36 2.76,-9.52 0,-7.96 -5.04,-8.88 -0.68,-0.12 -1.16,-0.08 -3.56,0 -6.8,3.4 -3.8,4.04 -4.64,10 -0.12,0.76 -0.12,1.52 h -2.72 z" />
      <path
         id="path298"
         style="font-style:normal;font-variant:normal;font-weight:normal;font-stretch:normal;font-size:40px;line-height:100%;font-family:'Ricty Nerd Font';-inkscape-font-specification:'Ricty Nerd Font'"
         d="m 257.35427,454.49261 -5.88,6.72 -1.76,-1.48 8.92,-10.2 8.92,10.2 -1.76,1.48 -5.88,-6.72 v 21.48 h -2.56 z" />
    </g>
    <g
       id="text4204-3-3-9-3"
       style="font-style:normal;font-weight:normal;line-height:0%;font-family:sans-serif;letter-spacing:0px;word-spacing:0px;fill:#75715e;fill-opacity:1;stroke:none;stroke-width:1px;stroke-linecap:butt;stroke-linejoin:miter;stroke-opacity:1"
       aria-label="↑スラッシュ ">
      <path
         id="path301"
         style="font-style:normal;font-variant:normal;font-weight:normal;font-stretch:normal;font-size:40px;line-height:100%;font-family:'Ricty Nerd Font';-inkscape-font-specification:'Ricty Nerd Font'"
         d="m 283.87992,453.42096 -5.88,6.72 -1.76,-1.48 8.92,-10.2 8.92,10.2 -1.76,1.48 -5.88,-6.72 v 21.48 h -2.56 z" />
      <path
         id="path303"
         style="font-style:normal;font-variant:normal;font-weight:normal;font-stretch:normal;font-size:40px;line-height:100%;font-family:'Ricty Nerd Font';-inkscape-font-specification:'Ricty Nerd Font'"
         d="m 313.87992,452.22096 v -2.6 h 22.56 v 2.6 q -2.52,6.2 -7.84,11.92 5.08,4.72 10.84,10.68 l -1.96,1.88 q -5.36,-5.56 -10.8,-10.68 -6.04,5.8 -14.68,10.28 l -1.24,-2.36 q 12.72,-6.56 19.36,-16.04 1.96,-2.76 3.28,-5.68 z" />
      <path
         id="path305"
         style="font-style:normal;font-variant:normal;font-weight:normal;font-stretch:normal;font-size:40px;line-height:100%;font-family:'Ricty Nerd Font';-inkscape-font-specification:'Ricty Nerd Font'"
         d="m 353.75992,451.78096 v -2.56 h 22.8 v 2.56 z m -2.8,6.72 h 28.12 v 0.64 q 0,16.44 -22.36,18 h -0.04 -0.04 l -0.44,-2.52 q 18.56,-1.4 19.92,-13.56 h -25.16 z" />
      <path
         id="path307"
         style="font-style:normal;font-variant:normal;font-weight:normal;font-stretch:normal;font-size:40px;line-height:100%;font-family:'Ricty Nerd Font';-inkscape-font-specification:'Ricty Nerd Font'"
         d="m 401.55992,455.34096 2.6,-0.56 q 1.44,5.04 2.64,10.08 l -2.64,0.56 q -1.12,-4.84 -2.6,-10.08 z m -7.96,1.08 2.52,-0.6 q 1.12,3.72 2.64,9.68 l -2.6,0.6 q -1.24,-5.24 -2.56,-9.68 z m 23.12,-1.4 q -0.28,10.52 -4.24,15.44 -3.72,4.64 -12.24,6.2 -0.52,0.12 -1.84,0.28 l -0.56,-2.44 q 8.04,-1.2 11.6,-4.68 3.6,-3.48 4.4,-11.4 0.16,-1.6 0.24,-3.56 z" />
      <path
         id="path309"
         style="font-style:normal;font-variant:normal;font-weight:normal;font-stretch:normal;font-size:40px;line-height:100%;font-family:'Ricty Nerd Font';-inkscape-font-specification:'Ricty Nerd Font'"
         d="m 433.23992,451.02096 0.48,-2.6 q 7.12,1.16 12.4,2.24 l -0.52,2.6 q -5.56,-1.16 -12.36,-2.24 z m -1.6,8.96 0.52,-2.6 q 7.44,1.32 11.84,2.24 l -0.52,2.6 q -9.84,-1.92 -11.84,-2.24 z m 1.48,14.16 q 11.64,-1.04 17.16,-5.72 5.44,-4.6 7.36,-14.4 l 0.16,-0.8 2.64,0.44 q -2.04,11.6 -8.64,17 -6.32,5.12 -18.24,6.12 z" />
      <path
         id="path311"
         style="font-style:normal;font-variant:normal;font-weight:normal;font-stretch:normal;font-size:40px;line-height:100%;font-family:'Ricty Nerd Font';-inkscape-font-specification:'Ricty Nerd Font'"
         d="m 476.03992,455.58096 h 16.76 l -1.36,17.48 h 5.92 v 2.4 h -24.4 v -2.4 h 15.6 l 1.2,-15.08 h -13.72 z" />
    </g>
  </g>
</svg>
